<svg width="76" height="57" viewBox="0 0 76 57" fill="none" xmlns="http://www.w3.org/2000/svg">
<g filter="url(#filter0_d_610_1437)">
<path fill-rule="evenodd" clip-rule="evenodd" d="M54.9131 27.6784L40.8166 1.0992C45.3826 -1.33479 51.0434 0.408132 53.4774 4.9974L67.574 31.5766C63.0079 34.0106 57.3471 32.2677 54.9131 27.6784ZM34.7948 27.6784L20.6982 1.0992C25.2643 -1.33479 30.9251 0.408132 33.359 4.9974L47.4556 31.5766C42.8895 34.0106 37.2288 32.2677 34.7948 27.6784ZM21.2451 27.6927C18.8053 32.2231 13.1635 33.9718 8.56505 31.6513L8.42603 31.5798L12.104 24.75C14.5438 20.2196 20.1856 18.4709 24.784 20.7914L24.9231 20.8629L21.2451 27.6927Z" fill="white"/>
<path d="M10.5599 48.2069C10.7658 48.2069 10.9344 48.1908 11.0657 48.1584C11.1971 48.1261 11.3231 48.0741 11.4438 48.0023C11.4367 47.8299 11.4225 47.584 11.4012 47.2645C11.3799 46.945 11.3533 46.5931 11.3213 46.209C11.2894 45.8248 11.2557 45.4245 11.2202 45.0081C11.1847 44.5916 11.1492 44.1967 11.1137 43.8233C11.0782 43.4499 11.0444 43.1143 11.0125 42.8163C10.9805 42.5183 10.9504 42.2975 10.922 42.1539C10.8865 41.96 10.7587 41.811 10.5386 41.7069C10.3185 41.6028 10.0345 41.5507 9.68667 41.5507C9.48079 41.5507 9.29442 41.5705 9.12759 41.61C8.96075 41.6495 8.82409 41.6979 8.71759 41.7554C8.5756 42.1359 8.41942 42.608 8.24903 43.1717C8.07864 43.7354 7.90825 44.3188 7.73787 44.9219H7.68462C7.62783 44.7352 7.56393 44.5252 7.49294 44.2918C7.42194 44.0585 7.34917 43.8233 7.27463 43.5864C7.20008 43.3494 7.12554 43.1196 7.05099 42.897C6.97645 42.6745 6.90723 42.477 6.84333 42.3047C6.74394 42.039 6.58775 41.8469 6.37477 41.7284C6.16179 41.61 5.86716 41.5507 5.49089 41.5507C5.14301 41.5507 4.87323 41.6046 4.68155 41.7123C4.48986 41.82 4.36562 41.9205 4.30883 42.0139L4 47.5068C4 47.7725 4.08697 47.9556 4.26091 48.0561C4.43484 48.1567 4.678 48.2069 4.99038 48.2069C5.13946 48.2069 5.28855 48.1944 5.43764 48.1692C5.58673 48.1441 5.70742 48.1136 5.79971 48.0777C5.82101 47.6684 5.83699 47.295 5.84764 46.9575C5.85828 46.6201 5.86538 46.2862 5.86893 45.9559C5.87248 45.6256 5.87958 45.2863 5.89023 44.9381C5.90088 44.5898 5.91685 44.2039 5.93815 43.7802H5.9914C6.06239 44.0746 6.16179 44.4175 6.28958 44.8088C6.41737 45.2001 6.58065 45.7117 6.77944 46.3436C6.82914 46.5016 6.9374 46.6129 7.10424 46.6775C7.27108 46.7421 7.48229 46.7744 7.73787 46.7744C7.92955 46.7744 8.09817 46.7511 8.2437 46.7044C8.38924 46.6578 8.50816 46.5949 8.60045 46.5159C8.79214 45.8554 8.95543 45.3132 9.09032 44.8896C9.2252 44.466 9.32815 44.1141 9.39914 43.8341H9.45239C9.47369 44.2577 9.48966 44.7819 9.50031 45.4066C9.51096 46.0313 9.53758 46.7349 9.58018 47.5176C9.59438 47.7905 9.69377 47.9736 9.87836 48.0669C10.0629 48.1602 10.2901 48.2069 10.5599 48.2069ZM13.6235 48.0052C13.7821 48.0052 13.9425 47.9945 14.1046 47.973C14.2667 47.9515 14.3857 47.9301 14.4615 47.9086V42.2401C14.4615 42.054 14.4408 41.9037 14.3995 41.7892C14.3581 41.6747 14.296 41.5852 14.2132 41.5208C14.1304 41.4564 14.0287 41.4117 13.908 41.3866C13.7873 41.3616 13.6476 41.349 13.489 41.349C13.3372 41.349 13.1786 41.3616 13.013 41.3866C12.8475 41.4117 12.7268 41.4313 12.6509 41.4457V47.1141C12.6509 47.3002 12.6716 47.4505 12.713 47.565C12.7544 47.6796 12.8164 47.769 12.8992 47.8334C12.982 47.8979 13.0837 47.9426 13.2044 47.9676C13.3251 47.9927 13.4648 48.0052 13.6235 48.0052ZM18.9319 48.2069C19.5949 48.2069 20.0885 48.1056 20.4129 47.903C20.7372 47.7003 20.8994 47.4532 20.8994 47.1617C20.8994 46.9768 20.8655 46.8151 20.7978 46.6764C20.7301 46.5378 20.6357 46.4187 20.5145 46.3191C20.3291 46.4187 20.1349 46.5076 19.9317 46.5858C19.7285 46.664 19.4808 46.7031 19.1886 46.7031C18.6397 46.7031 18.203 46.536 17.8787 46.2018C17.5543 45.8676 17.3922 45.3912 17.3922 44.7726C17.3922 44.1612 17.5383 43.6883 17.8306 43.3541C18.1228 43.02 18.5434 42.8529 19.0923 42.8529C19.3703 42.8529 19.6145 42.8955 19.8248 42.9808C20.0351 43.0662 20.2329 43.1693 20.4182 43.2901C20.5394 43.2119 20.6463 43.1053 20.739 42.9702C20.8317 42.8351 20.878 42.6751 20.878 42.4902C20.878 42.1561 20.698 41.8823 20.338 41.669C19.978 41.4557 19.4701 41.349 18.8143 41.349C18.351 41.349 17.9161 41.4237 17.5098 41.573C17.1035 41.7223 16.7488 41.9427 16.4458 42.2343C16.1429 42.5258 15.9041 42.8831 15.7294 43.3061C15.5548 43.7292 15.4675 44.218 15.4675 44.7726C15.4675 45.3699 15.5583 45.8836 15.7401 46.3138C15.9219 46.744 16.1696 47.0995 16.4833 47.3803C16.7969 47.6612 17.1641 47.8692 17.5846 48.0043C18.0052 48.1394 18.4543 48.2069 18.9319 48.2069ZM26.3227 48.0052C26.5552 48.0052 26.7648 47.9402 26.9515 47.8101C27.1382 47.68 27.2668 47.4918 27.3373 47.2457C27.1964 46.9996 27.0026 46.7253 26.756 46.4229C26.5095 46.1205 26.2593 45.797 26.0057 45.4524C26.3157 45.2837 26.5834 45.0446 26.8089 44.7351C27.0343 44.4257 27.1471 44.053 27.1471 43.617C27.1471 42.9208 26.9005 42.3687 26.4073 41.9609C25.9141 41.553 25.1814 41.349 24.2091 41.349C23.8498 41.349 23.5117 41.3684 23.1946 41.407C22.8776 41.4457 22.5993 41.5073 22.3597 41.5916C22.2188 41.6409 22.1079 41.7059 22.0269 41.7868C21.9458 41.8677 21.9053 41.9819 21.9053 42.1296V47.098C21.9053 47.2809 21.9265 47.4286 21.9687 47.5411C22.011 47.6536 22.0727 47.7415 22.1537 47.8048C22.2347 47.8681 22.3369 47.912 22.4601 47.9366C22.5834 47.9613 22.7261 47.9736 22.8881 47.9736C23.0502 47.9736 23.214 47.963 23.3796 47.9419C23.5451 47.9208 23.6667 47.8997 23.7442 47.8786V45.8533H24.3043L25.192 47.2774C25.2554 47.3828 25.3223 47.4813 25.3928 47.5727C25.4632 47.6641 25.5407 47.7415 25.6253 47.8048C25.7098 47.8681 25.8084 47.9173 25.9212 47.9525C26.0339 47.9876 26.1678 48.0052 26.3227 48.0052ZM24.4215 44.5763H23.716V43.0046C23.7968 42.9906 23.8703 42.9801 23.9365 42.9731C24.0026 42.9661 24.0908 42.9627 24.201 42.9627C24.5905 42.9627 24.8753 43.0308 25.0554 43.167C25.2354 43.3032 25.3254 43.504 25.3254 43.7695C25.3254 44.0349 25.2446 44.2357 25.0829 44.3719C24.9212 44.5082 24.7008 44.5763 24.4215 44.5763ZM33.1894 48.2069C33.4232 48.2069 33.625 48.1768 33.795 48.1165C33.965 48.0563 34.0925 47.9765 34.1775 47.8773C34.0713 47.4874 33.9473 47.0391 33.8057 46.5322C33.664 46.0254 33.5188 45.5115 33.37 44.9905C33.2213 44.4695 33.0725 43.9644 32.9238 43.4753C32.7751 42.9862 32.6369 42.5573 32.5094 42.1887C32.4315 41.969 32.2562 41.8077 31.9835 41.7049C31.7108 41.6021 31.3974 41.5507 31.0432 41.5507C30.7953 41.5507 30.5492 41.5826 30.3048 41.6464C30.0605 41.7102 29.8781 41.7776 29.7576 41.8485C29.7081 41.976 29.639 42.1603 29.5505 42.4014C29.4619 42.6424 29.3645 42.9171 29.2583 43.2254C29.152 43.5338 29.0387 43.8616 28.9183 44.209C28.7979 44.5563 28.6846 44.8948 28.5783 45.2244C28.4721 45.554 28.3747 45.8606 28.2861 46.1441C28.1976 46.4277 28.1285 46.6651 28.0789 46.8565C28.0435 46.9912 28.0117 47.1082 27.9833 47.2074C27.955 47.3067 27.9408 47.4059 27.9408 47.5051C27.9408 47.7249 28.0276 47.8968 28.2011 48.0208C28.3747 48.1449 28.6421 48.2069 29.0033 48.2069C29.1591 48.2069 29.2919 48.1945 29.4017 48.1697C29.5115 48.1449 29.616 48.1148 29.7151 48.0793C29.7718 47.8667 29.8285 47.6469 29.8851 47.4201C29.9418 47.1932 29.9985 46.9735 30.0551 46.7608H31.9782L32.1694 47.4945C32.2049 47.615 32.2456 47.7213 32.2916 47.8135C32.3377 47.9057 32.3979 47.9801 32.4723 48.0368C32.5466 48.0935 32.6422 48.136 32.7591 48.1644C32.876 48.1927 33.0194 48.2069 33.1894 48.2069ZM31.7633 45.1814H30.355C30.461 44.8214 30.5803 44.4666 30.7128 44.1168C30.8453 43.7671 30.9645 43.4496 31.0705 43.1644H31.1387C31.2295 43.4428 31.3298 43.7569 31.4396 44.1066C31.5494 44.4564 31.6573 44.8146 31.7633 45.1814ZM37.0501 48.2069C37.9564 48.2069 38.643 48.0191 39.1101 47.6435C39.5771 47.2678 39.8107 46.776 39.8107 46.1678C39.8107 45.5954 39.6346 45.1429 39.2826 44.8102C38.9306 44.4775 38.4269 44.2038 37.7716 43.9892L37.2174 43.8067C37.0362 43.7495 36.9003 43.6869 36.8096 43.6189C36.719 43.5509 36.6737 43.4633 36.6737 43.356C36.6737 43.22 36.7469 43.1073 36.8933 43.0179C37.0397 42.9285 37.2697 42.8837 37.5834 42.8837C37.8901 42.8837 38.1725 42.9213 38.4304 42.9964C38.6883 43.0716 38.894 43.1592 39.0473 43.2594C39.1658 43.1664 39.2669 43.0537 39.3506 42.9213C39.4342 42.7889 39.476 42.6297 39.476 42.4437C39.476 42.2577 39.4238 42.0949 39.3192 41.9554C39.2146 41.8159 39.07 41.7014 38.8852 41.612C38.7005 41.5225 38.4792 41.4564 38.2213 41.4134C37.9633 41.3705 37.6845 41.349 37.3847 41.349C36.5622 41.349 35.9226 41.5315 35.466 41.8964C35.0094 42.2613 34.7811 42.7478 34.7811 43.356C34.7811 43.6708 34.8316 43.9373 34.9327 44.1555C35.0338 44.3737 35.1749 44.5615 35.3562 44.7189C35.5374 44.8764 35.7535 45.0105 36.0045 45.1214C36.2554 45.2323 36.5343 45.3414 36.841 45.4487L37.2802 45.599C37.4823 45.6705 37.6392 45.7439 37.7507 45.819C37.8623 45.8941 37.918 46.0032 37.918 46.1463C37.918 46.2894 37.8483 46.4146 37.7089 46.522C37.5695 46.6293 37.329 46.6829 36.9874 46.6829C36.6528 46.6829 36.3443 46.6257 36.062 46.5112C35.7797 46.3967 35.5409 46.2608 35.3457 46.1034C35.2063 46.1821 35.0773 46.2948 34.9588 46.4415C34.8403 46.5881 34.7811 46.7652 34.7811 46.9727C34.7811 47.173 34.8386 47.3501 34.9536 47.504C35.0686 47.6578 35.229 47.7866 35.4346 47.8903C35.6402 47.9941 35.8807 48.0728 36.1561 48.1264C36.4315 48.1801 36.7295 48.2069 37.0501 48.2069ZM43.9297 48.2069C44.4051 48.2069 44.8456 48.1323 45.2512 47.9829C45.6567 47.8336 46.0081 47.615 46.3053 47.327C46.6024 47.0391 46.8349 46.68 47.0027 46.2498C47.1705 45.8196 47.2544 45.3272 47.2544 44.7726C47.2544 44.218 47.1688 43.7274 46.9975 43.3008C46.8262 42.8742 46.5902 42.5169 46.2895 42.2289C45.9889 41.941 45.6375 41.7223 45.2355 41.573C44.8334 41.4237 44.3981 41.349 43.9297 41.349C43.4612 41.349 43.0259 41.4237 42.6239 41.573C42.2218 41.7223 41.8722 41.941 41.5751 42.2289C41.2779 42.5169 41.0437 42.8742 40.8723 43.3008C40.701 43.7274 40.6154 44.218 40.6154 44.7726C40.6154 45.3201 40.6993 45.8072 40.8671 46.2338C41.0349 46.6604 41.2657 47.0195 41.5593 47.311C41.853 47.6025 42.2026 47.8247 42.6081 47.9776C43.0137 48.1305 43.4542 48.2069 43.9297 48.2069ZM43.8292 46.5933C43.4027 46.5933 43.0623 46.4341 42.8078 46.1156C42.5533 45.7971 42.426 45.3158 42.426 44.6718C42.426 44.0278 42.555 43.5483 42.8129 43.2334C43.0709 42.9184 43.413 42.7609 43.8395 42.7609C44.2728 42.7609 44.615 42.9202 44.866 43.2387C45.1171 43.5571 45.2426 44.0349 45.2426 44.6718C45.2426 45.3158 45.1154 45.7971 44.8609 46.1156C44.6064 46.4341 44.2625 46.5933 43.8292 46.5933ZM52.0377 48.0052C52.233 48.0052 52.3899 47.9461 52.5085 47.8278C52.6271 47.7095 52.6864 47.507 52.6864 47.2202C52.6864 47.0769 52.6655 46.9389 52.6236 46.8062C52.5818 46.6736 52.5364 46.5679 52.4876 46.489H50.0915V42.2415C50.0915 42.0552 50.0705 41.9046 50.0287 41.7899C49.9868 41.6752 49.924 41.5856 49.8403 41.5211C49.7566 41.4566 49.6537 41.4118 49.5317 41.3867C49.4096 41.3616 49.2683 41.349 49.1079 41.349C48.9544 41.349 48.794 41.3616 48.6266 41.3867C48.4592 41.4118 48.3371 41.4315 48.2604 41.4458V47.0052C48.2604 47.3134 48.3476 47.5572 48.5219 47.7364C48.6963 47.9156 48.9335 48.0052 49.2335 48.0052H52.0377ZM59.6826 48.0052C59.8779 48.0052 60.0349 47.9461 60.1535 47.8278C60.2721 47.7095 60.3314 47.507 60.3314 47.2202C60.3314 47.0769 60.3104 46.9389 60.2686 46.8062C60.2267 46.6736 60.1814 46.5679 60.1326 46.489H57.7364V42.2415C57.7364 42.0552 57.7155 41.9046 57.6736 41.7899C57.6318 41.6752 57.569 41.5856 57.4853 41.5211C57.4016 41.4566 57.2987 41.4118 57.1766 41.3867C57.0546 41.3616 56.9133 41.349 56.7529 41.349C56.5994 41.349 56.439 41.3616 56.2715 41.3867C56.1041 41.4118 55.9821 41.4315 55.9053 41.4458V47.0052C55.9053 47.3134 55.9925 47.5572 56.1669 47.7364C56.3413 47.9156 56.5785 48.0052 56.8784 48.0052H59.6826ZM65.1146 48.0052C65.3099 48.0052 65.4668 47.9461 65.5854 47.8278C65.704 47.7095 65.7633 47.507 65.7633 47.2202C65.7633 47.0769 65.7424 46.9389 65.7005 46.8062C65.6587 46.6736 65.6133 46.5679 65.5645 46.489H63.1684V42.2415C63.1684 42.0552 63.1475 41.9046 63.1056 41.7899C63.0637 41.6752 63.001 41.5856 62.9173 41.5211C62.8336 41.4566 62.7307 41.4118 62.6086 41.3867C62.4865 41.3616 62.3453 41.349 62.1848 41.349C62.0314 41.349 61.8709 41.3616 61.7035 41.3867C61.5361 41.4118 61.414 41.4315 61.3373 41.4458V47.0052C61.3373 47.3134 61.4245 47.5572 61.5989 47.7364C61.7733 47.9156 62.0104 48.0052 62.3104 48.0052H65.1146ZM67.7686 48.0052C67.9316 48.0052 68.0964 47.9946 68.263 47.9734C68.4295 47.9522 68.5518 47.931 68.6298 47.9098V45.9596H69.3846C69.817 45.9596 70.1979 45.9048 70.5275 45.7953C70.8571 45.6858 71.13 45.5303 71.3462 45.329C71.5623 45.1276 71.7253 44.8873 71.8352 44.6082C71.9451 44.3291 72 44.0165 72 43.6702C72 42.9565 71.7413 42.3913 71.2239 41.9744C70.7065 41.5575 69.9587 41.349 68.9806 41.349C68.6688 41.349 68.3587 41.3685 68.0503 41.4073C67.742 41.4462 67.4674 41.508 67.2264 41.5928C67.0846 41.6423 66.973 41.7076 66.8915 41.7889C66.81 41.8701 66.7692 41.985 66.7692 42.1334V47.1255C66.7692 47.3092 66.7905 47.4576 66.833 47.5707C66.8755 47.6837 66.9393 47.772 67.0244 47.8356C67.1094 47.8992 67.214 47.9434 67.338 47.9681C67.4621 47.9928 67.6056 48.0052 67.7686 48.0052ZM69.113 44.5763H68.5799V42.9933C68.6536 42.9797 68.7257 42.9712 68.7962 42.9678C68.8666 42.9644 68.9554 42.9627 69.0627 42.9627C69.3645 42.9627 69.5942 43.0324 69.7518 43.172C69.9094 43.3116 69.9882 43.5107 69.9882 43.7695C69.9882 44.0418 69.9127 44.2444 69.7618 44.3771C69.6109 44.5099 69.3947 44.5763 69.113 44.5763Z" fill="white"/>
</g>
<defs>
<filter id="filter0_d_610_1437" x="0" y="0" width="76" height="56.2069" filterUnits="userSpaceOnUse" color-interpolation-filters="sRGB">
<feFlood flood-opacity="0" result="BackgroundImageFix"/>
<feColorMatrix in="SourceAlpha" type="matrix" values="0 0 0 0 0 0 0 0 0 0 0 0 0 0 0 0 0 0 127 0" result="hardAlpha"/>
<feOffset dy="4"/>
<feGaussianBlur stdDeviation="2"/>
<feComposite in2="hardAlpha" operator="out"/>
<feColorMatrix type="matrix" values="0 0 0 0 0 0 0 0 0 0 0 0 0 0 0 0 0 0 0.25 0"/>
<feBlend mode="normal" in2="BackgroundImageFix" result="effect1_dropShadow_610_1437"/>
<feBlend mode="normal" in="SourceGraphic" in2="effect1_dropShadow_610_1437" result="shape"/>
</filter>
</defs>
</svg>
